<svg xmlns="http://www.w3.org/2000/svg" width="18" height="18" viewBox="0 0 18 18">
  <g id="Github" transform="translate(-528.717 -601.92)">
    <path id="iconfinder_mark-github_298822" d="M9,0A9.116,9.116,0,0,0,0,9.228a9.21,9.21,0,0,0,6.155,8.756c.45.084.614-.2.614-.444,0-.22-.008-.947-.013-1.718-2.5.558-3.032-1.088-3.032-1.088a2.431,2.431,0,0,0-1-1.349c-.818-.572.062-.561.062-.561a1.9,1.9,0,0,1,1.379.951,1.889,1.889,0,0,0,2.619.766,1.992,1.992,0,0,1,.571-1.232c-2-.233-4.1-1.025-4.1-4.561A3.623,3.623,0,0,1,4.184,6.27a3.4,3.4,0,0,1,.089-2.443s.755-.248,2.475.946a8.317,8.317,0,0,1,4.506,0c1.717-1.2,2.473-.946,2.473-.946a3.388,3.388,0,0,1,.09,2.442,3.612,3.612,0,0,1,.925,2.476c0,3.545-2.1,4.325-4.11,4.554a2.228,2.228,0,0,1,.611,1.708c0,1.233-.012,2.228-.012,2.532,0,.246.164.533.62.443A9.214,9.214,0,0,0,18,9.228,9.116,9.116,0,0,0,9,0Z" transform="translate(528.717 601.92)" fill="#666"/>
  </g>
</svg>
