<svg id="Instagram" xmlns="http://www.w3.org/2000/svg" width="17.637" height="17.637" viewBox="0 0 17.637 17.637">
  <path id="Path_3" data-name="Path 3" d="M8.819,1.568a27.04,27.04,0,0,1,3.527.1,4.545,4.545,0,0,1,1.666.294,3.441,3.441,0,0,1,1.666,1.666,4.545,4.545,0,0,1,.294,1.666c0,.882.1,1.176.1,3.527a27.04,27.04,0,0,1-.1,3.527,4.545,4.545,0,0,1-.294,1.666,3.441,3.441,0,0,1-1.666,1.666,4.545,4.545,0,0,1-1.666.294c-.882,0-1.176.1-3.527.1a27.04,27.04,0,0,1-3.527-.1,4.545,4.545,0,0,1-1.666-.294A3.441,3.441,0,0,1,1.96,14.012a4.545,4.545,0,0,1-.294-1.666c0-.882-.1-1.176-.1-3.527a27.04,27.04,0,0,1,.1-3.527A4.545,4.545,0,0,1,1.96,3.625a3.519,3.519,0,0,1,.686-.98,1.657,1.657,0,0,1,.98-.686,4.545,4.545,0,0,1,1.666-.294,27.04,27.04,0,0,1,3.527-.1M8.819,0A28.952,28.952,0,0,0,5.193.1,6.049,6.049,0,0,0,3.038.49a3.836,3.836,0,0,0-1.568.98A3.836,3.836,0,0,0,.49,3.038,4.465,4.465,0,0,0,.1,5.193,28.952,28.952,0,0,0,0,8.819a28.952,28.952,0,0,0,.1,3.625A6.049,6.049,0,0,0,.49,14.6a3.836,3.836,0,0,0,.98,1.568,3.836,3.836,0,0,0,1.568.98,6.049,6.049,0,0,0,2.156.392,28.952,28.952,0,0,0,3.625.1,28.952,28.952,0,0,0,3.625-.1,6.049,6.049,0,0,0,2.156-.392A4.111,4.111,0,0,0,17.147,14.6a6.049,6.049,0,0,0,.392-2.156c0-.98.1-1.274.1-3.625a28.952,28.952,0,0,0-.1-3.625,6.049,6.049,0,0,0-.392-2.156,3.836,3.836,0,0,0-.98-1.568A3.836,3.836,0,0,0,14.6.49,6.049,6.049,0,0,0,12.444.1,28.952,28.952,0,0,0,8.819,0m0,4.311A4.435,4.435,0,0,0,4.311,8.819,4.507,4.507,0,1,0,8.819,4.311m0,7.447a2.887,2.887,0,0,1-2.94-2.94,2.887,2.887,0,0,1,2.94-2.94,2.887,2.887,0,0,1,2.94,2.94,2.887,2.887,0,0,1-2.94,2.94m4.7-8.721A1.078,1.078,0,1,0,14.6,4.115a1.087,1.087,0,0,0-1.078-1.078" fill="#666" fill-rule="evenodd"/>
</svg>
