<svg xmlns="http://www.w3.org/2000/svg" width="18" height="18" viewBox="0 0 18 18">
  <path id="Path_125" data-name="Path 125" d="M6.3,18a5.676,5.676,0,0,1-4.2-1.8A5.8,5.8,0,0,1,0,11.7,6.019,6.019,0,0,1,.45,9.45,5.187,5.187,0,0,1,1.5,7.65l3-3A3.615,3.615,0,0,1,7.2,3.6a4.1,4.1,0,0,1,2.85,1.2,3.852,3.852,0,0,1,1.2,3,3.615,3.615,0,0,1-1.05,2.7L8.55,12a1.146,1.146,0,0,1-.75.3,1.608,1.608,0,0,1-.9-.3,2.132,2.132,0,0,1-.3-.9,2.132,2.132,0,0,1,.3-.9L8.55,8.55A.907.907,0,0,0,9,7.65,1.832,1.832,0,0,0,8.4,6.3,1.748,1.748,0,0,0,7.35,6a2.168,2.168,0,0,0-1.05.3l-3.15,3a4.15,4.15,0,0,0-.75,2.4,4.388,4.388,0,0,0,1.2,2.85,3.112,3.112,0,0,0,1.5.9,2.593,2.593,0,0,0,1.5.15c.45-.15.9-.15,1.2-.3a3.138,3.138,0,0,0,.9-.6l6-6a3.29,3.29,0,0,0,1.05-2.55A3.93,3.93,0,0,0,14.4,3.3a6.68,6.68,0,0,0-1.8-.9H11.25a3.176,3.176,0,0,0-1.05.45A1.9,1.9,0,0,1,9.3,3a1,1,0,0,1-.75-.6c-.15-.15-.15-.45-.15-.9A2.633,2.633,0,0,1,9,.75,5.908,5.908,0,0,1,12,0a5.553,5.553,0,0,1,3.9,1.5A6.33,6.33,0,0,1,18,6a5.87,5.87,0,0,1-1.65,4.35l-6,6A5.539,5.539,0,0,1,6.3,18Z" fill="#666"/>
</svg>
